<svg width="88" height="88" fill="none" xmlns="http://www.w3.org/2000/svg"><g filter="url(#a)"><circle cx="44" cy="44" r="44" fill="#403646"/></g><path fill-rule="evenodd" clip-rule="evenodd" d="M33.034 46.754a10.98 10.98 0 0 1-.974-.485l-.955 1.441c.335.19.7.366 1.093.525.393.159.807.295 1.242.409a11.284 11.284 0 0 0 2.82.356 9.22 9.22 0 0 0 2.05-.21c.614-.14 1.139-.346 1.573-.617.435-.271.77-.604 1.006-.998.235-.395.352-.844.352-1.349 0-.377-.07-.718-.208-1.023a2.097 2.097 0 0 0-.616-.78 2.898 2.898 0 0 0-1.008-.496 4.982 4.982 0 0 0-1.38-.174c-.275 0-.559.014-.85.042-.292.028-.578.06-.859.093l-.41.048-.392.044a6.241 6.241 0 0 1-.674.042c-.486 0-.847-.083-1.085-.25-.237-.166-.355-.38-.355-.641 0-.135.036-.27.11-.407.073-.136.204-.26.392-.37.188-.11.442-.2.76-.272.318-.07.724-.106 1.217-.106.346 0 .686.02 1.019.059.333.039.656.092.968.16.313.067.612.146.898.238.286.091.554.191.802.3l.785-1.436a9.08 9.08 0 0 0-.977-.367c-.35-.11-.714-.205-1.093-.283-.378-.079-.767-.14-1.166-.182-.399-.043-.796-.065-1.191-.065a8.32 8.32 0 0 0-1.46.115 5.506 5.506 0 0 0-1.13.317 3.372 3.372 0 0 0-.832.48c-.23.184-.417.384-.562.6-.145.214-.25.44-.316.675a2.631 2.631 0 0 0-.1.712c0 .404.084.757.25 1.06.165.303.388.555.669.757.28.202.602.353.965.454.363.101.743.151 1.138.151.237 0 .49-.015.76-.047.269-.032.542-.066.818-.104l.413-.054.409-.05c.27-.031.529-.047.773-.047.558 0 .97.092 1.237.277.267.185.401.437.401.755 0 .198-.053.38-.16.549-.108.168-.28.313-.515.435-.235.121-.539.216-.912.286-.372.069-.824.103-1.355.103a9.37 9.37 0 0 1-1.245-.078 7.832 7.832 0 0 1-2.14-.592ZM16 40.112h1.801v8.765H16v-8.765Zm4.071 0h1.79l5.5 2.86v-2.86h1.79v8.765h-1.79v-4.02l-5.5-2.844v6.864h-1.79v-8.765Zm22.808 0h1.79v4.828c0 .397.055.749.164 1.057.11.309.272.57.488.782.217.213.485.375.805.485.32.11.693.166 1.118.166.422 0 .794-.055 1.115-.166.322-.11.591-.272.808-.485.216-.213.38-.473.488-.782.11-.308.164-.66.164-1.057v-4.828h1.79v5.041c0 .576-.098 1.1-.294 1.57-.195.471-.48.875-.852 1.212-.373.336-.83.596-1.37.779-.54.183-1.156.275-1.849.275-.693 0-1.309-.092-1.85-.275a3.868 3.868 0 0 1-1.369-.78 3.335 3.335 0 0 1-.852-1.21 4.055 4.055 0 0 1-.294-1.57v-5.042Zm15.4 0h-4.49v8.765h1.79V46.38l2.761.006 1.66 2.49h2.191l-1.92-2.804c.335-.127.627-.287.876-.48.248-.192.454-.412.618-.658a2.75 2.75 0 0 0 .364-.81c.08-.294.119-.603.119-.929 0-.482-.08-.914-.24-1.295a2.456 2.456 0 0 0-.731-.97c-.328-.266-.74-.468-1.237-.609-.497-.14-1.084-.21-1.762-.21Zm.044 4.733c.34 0 .636-.04.89-.118.254-.078.466-.189.638-.33.171-.143.299-.316.384-.52.084-.203.127-.43.127-.68 0-.49-.17-.869-.508-1.136-.34-.267-.85-.401-1.53-.401h-2.745v3.185h2.744Zm13.558-4.733h-7.516v8.765H72v-1.554h-5.844v-2.439h5.07v-1.463h-5.07v-1.75h5.725v-1.559Z" fill="#F3D3CA"/><defs><filter id="a" x="0" y="0" width="88" height="88" filterUnits="userSpaceOnUse" color-interpolation-filters="sRGB"><feFlood flood-opacity="0" result="BackgroundImageFix"/><feBlend in="SourceGraphic" in2="BackgroundImageFix" result="shape"/><feColorMatrix in="SourceAlpha" values="0 0 0 0 0 0 0 0 0 0 0 0 0 0 0 0 0 0 127 0" result="hardAlpha"/><feOffset/><feGaussianBlur stdDeviation="17.5"/><feComposite in2="hardAlpha" operator="arithmetic" k2="-1" k3="1"/><feColorMatrix values="0 0 0 0 0 0 0 0 0 0 0 0 0 0 0 0 0 0 0.0452633 0"/><feBlend in2="shape" result="effect1_innerShadow_0_1337"/></filter></defs></svg>