<svg width="88" height="88" fill="none" xmlns="http://www.w3.org/2000/svg"><g filter="url(#a)"><circle cx="44" cy="44" r="44" fill="#8D1558"/></g><path fill-rule="evenodd" clip-rule="evenodd" d="M14.411 43.854c.78 0 1.411-.635 1.411-1.42V31.42c0-.784-.631-1.419-1.41-1.419-.78 0-1.412.635-1.412 1.419v11.016c0 .784.631 1.419 1.411 1.419Zm8.12.112c3.102 0 5.404-2.334 5.404-5.21v-.037c0-2.875-2.284-5.172-5.366-5.172-3.1 0-5.403 2.334-5.403 5.21v.037c0 2.875 2.284 5.172 5.366 5.172Zm-2.58-5.21c0 1.476 1.058 2.764 2.618 2.764 1.615 0 2.58-1.251 2.58-2.726v-.037c0-1.475-1.058-2.764-2.617-2.764-1.616 0-2.581 1.251-2.581 2.726v.038Zm14.08 5.21c3.102 0 5.404-2.334 5.404-5.21v-.037c0-2.875-2.284-5.172-5.366-5.172-3.1 0-5.403 2.334-5.403 5.21v.037c0 2.875 2.284 5.172 5.366 5.172Zm-2.58-5.21c0 1.476 1.058 2.764 2.618 2.764 1.615 0 2.58-1.251 2.58-2.726v-.037c0-1.475-1.057-2.764-2.617-2.764-1.616 0-2.581 1.251-2.581 2.726v.038Zm10.609 8.085c.78 0 1.41-.635 1.41-1.419v-2.987c.67.803 1.598 1.493 3.102 1.493 2.358 0 4.53-1.83 4.53-5.171v-.038c0-3.342-2.21-5.172-4.53-5.172-1.467 0-2.414.691-3.101 1.625v-.13c0-.785-.631-1.42-1.411-1.42s-1.412.635-1.412 1.42v10.38c0 .784.632 1.42 1.412 1.42Zm1.374-8.084c0 1.661 1.095 2.763 2.413 2.763 1.319 0 2.433-1.083 2.433-2.763v-.038c0-1.661-1.114-2.763-2.433-2.763-1.318 0-2.413 1.102-2.413 2.763v.038ZM17.289 57.963c2.154 0 3.806-1.009 3.806-3.23v-.038c0-1.83-1.615-2.502-3.008-2.968l-.312-.108c-.941-.32-1.711-.582-1.711-1.087v-.038c0-.392.352-.69 1.04-.69.594 0 1.355.242 2.153.634.186.094.316.131.52.131.631 0 1.133-.485 1.133-1.12 0-.486-.26-.86-.669-1.064-.965-.486-2.042-.766-3.082-.766-2.005 0-3.64 1.139-3.64 3.174v.037c0 1.942 1.58 2.596 2.972 3.006.127.04.253.077.375.113h.001c.931.277 1.685.5 1.685 1.045v.037c0 .448-.372.747-1.189.747-.798 0-1.745-.299-2.692-.896a1.078 1.078 0 0 0-.557-.15c-.631 0-1.114.486-1.114 1.12 0 .449.241.785.539.972a6.908 6.908 0 0 0 3.75 1.139Zm9.792-.3c-.52.206-1.003.281-1.616.281-1.726 0-2.896-.69-2.896-3.006v-4.742h-.093a1.208 1.208 0 0 1-1.207-1.214c0-.672.539-1.214 1.207-1.214h.093v-1.25c0-.785.631-1.42 1.411-1.42s1.411.635 1.411 1.42v1.25h1.244c.669 0 1.207.542 1.207 1.214 0 .672-.538 1.214-1.207 1.214h-1.244v4.275c0 .654.279.971.91.971.052 0 .134-.006.205-.011.056-.004.105-.008.13-.008.63 0 1.169.523 1.169 1.177 0 .504-.334.915-.724 1.064Zm5.205.3c1.43 0 2.266-.766 2.916-1.606v.112c0 .784.63 1.419 1.41 1.419.78 0 1.412-.635 1.412-1.419v-7.394c0-.784-.631-1.419-1.411-1.419s-1.411.635-1.411 1.42v4.275c0 1.344-.687 2.035-1.764 2.035s-1.709-.69-1.709-2.035v-4.276c0-.784-.63-1.419-1.41-1.419-.78 0-1.412.635-1.412 1.42v5.171c0 2.297 1.244 3.716 3.38 3.716Zm14.62-1.625c-.687.934-1.634 1.625-3.101 1.625-2.32 0-4.53-1.83-4.53-5.172v-.037c0-3.343 2.172-5.172 4.53-5.172 1.504 0 2.432.69 3.1 1.493v-3.622c0-.784.632-1.419 1.412-1.419.78 0 1.411.635 1.411 1.42v11.015c0 .784-.631 1.419-1.411 1.419s-1.411-.635-1.411-1.419v-.13Zm-2.377-.784c-1.318 0-2.432-1.102-2.432-2.763v-.037c0-1.68 1.114-2.764 2.432-2.764 1.318 0 2.414 1.102 2.414 2.764v.037c0 1.662-1.096 2.763-2.414 2.763Zm10.015-10.138c0 .821-.687 1.344-1.578 1.344-.892 0-1.579-.523-1.579-1.344v-.037c0-.822.687-1.326 1.578-1.326.892 0 1.579.504 1.579 1.326v.037Zm-1.578 12.472c.78 0 1.41-.635 1.41-1.419v-7.394c0-.784-.63-1.419-1.41-1.419-.78 0-1.412.635-1.412 1.42v7.393c0 .784.632 1.419 1.411 1.419Zm13.523-5.097c0 2.875-2.302 5.209-5.403 5.209-3.082 0-5.366-2.297-5.366-5.172v-.037c0-2.875 2.303-5.21 5.403-5.21 3.083 0 5.366 2.297 5.366 5.172v.038Zm-5.366 2.763c-1.56 0-2.618-1.288-2.618-2.763v-.037c0-1.475.966-2.726 2.581-2.726 1.56 0 2.618 1.288 2.618 2.763v.037c0 1.475-.965 2.726-2.58 2.726ZM75 54.733c0 2.221-1.653 3.23-3.806 3.23a6.908 6.908 0 0 1-3.751-1.14 1.132 1.132 0 0 1-.538-.97c0-.635.482-1.12 1.114-1.12.204 0 .408.056.557.149.947.597 1.894.896 2.692.896.817 0 1.188-.299 1.188-.747v-.037c0-.544-.753-.768-1.684-1.044-.123-.037-.249-.074-.377-.114-1.392-.41-2.97-1.064-2.97-3.006v-.037c0-2.035 1.633-3.174 3.639-3.174 1.04 0 2.116.28 3.082.766.408.205.668.578.668 1.064 0 .635-.501 1.12-1.132 1.12-.204 0-.335-.037-.52-.13-.799-.393-1.56-.636-2.154-.636-.687 0-1.04.3-1.04.691v.038c0 .505.77.767 1.71 1.087.103.035.208.07.314.108 1.393.466 3.008 1.139 3.008 2.968v.038Z" fill="#fff"/><defs><filter id="a" x="0" y="0" width="88" height="88" filterUnits="userSpaceOnUse" color-interpolation-filters="sRGB"><feFlood flood-opacity="0" result="BackgroundImageFix"/><feBlend in="SourceGraphic" in2="BackgroundImageFix" result="shape"/><feColorMatrix in="SourceAlpha" values="0 0 0 0 0 0 0 0 0 0 0 0 0 0 0 0 0 0 127 0" result="hardAlpha"/><feOffset/><feGaussianBlur stdDeviation="17.5"/><feComposite in2="hardAlpha" operator="arithmetic" k2="-1" k3="1"/><feColorMatrix values="0 0 0 0 0 0 0 0 0 0 0 0 0 0 0 0 0 0 0.0452633 0"/><feBlend in2="shape" result="effect1_innerShadow_0_1119"/></filter></defs></svg>