<svg width="88" height="88" fill="none" xmlns="http://www.w3.org/2000/svg"><g filter="url(#a)"><circle cx="44" cy="44" r="44" fill="#F3603C"/></g><path fill-rule="evenodd" clip-rule="evenodd" d="M62.856 48.892c.504 0 .954-.059 1.352-.176.398-.117.732-.28 1.002-.49.271-.208.495-.465.673-.768.178-.303.307-.634.385-.992a5.5 5.5 0 0 0 .118-1.18V39.11h-1.588v.724h-.028a2.969 2.969 0 0 0-.988-.62A3.222 3.222 0 0 0 62.62 39c-.634 0-1.203.15-1.707.448a3.09 3.09 0 0 0-1.175 1.244c-.28.531-.42 1.127-.42 1.79 0 .67.147 1.265.44 1.785.294.519.698.917 1.21 1.195a3.58 3.58 0 0 0 1.735.418c.86 0 1.56-.28 2.102-.841h.027v.73c0 .487-.18.892-.54 1.214-.361.321-.87.482-1.527.482-.448 0-.842-.055-1.182-.165a7.623 7.623 0 0 1-1.176-.517l-.374 1.392c.388.23.825.407 1.31.53.486.125.99.187 1.513.187Zm-33.05-6.328v3.44h-1.588v-3.592c0-1.314-.46-1.971-1.38-1.971-.486 0-.885.19-1.197.568-.313.38-.469.898-.469 1.555v3.433h-1.588V39.11h1.588v.952h.021c.282-.34.612-.601.989-.783a2.678 2.678 0 0 1 1.175-.272c.967 0 1.656.381 2.067 1.144h.028c.291-.372.65-.656 1.075-.851a3.334 3.334 0 0 1 1.408-.293c.782 0 1.383.25 1.804.748.42.498.631 1.251.631 2.257v3.992h-1.588v-3.592c0-1.314-.453-1.971-1.36-1.971-.462 0-.847.19-1.155.568-.307.38-.461.898-.461 1.555Zm11.068 2.51c-.527.688-1.262 1.033-2.206 1.033-.476 0-.921-.084-1.335-.252a3.088 3.088 0 0 1-1.065-.706 3.267 3.267 0 0 1-.7-1.117 3.97 3.97 0 0 1-.257-1.447c0-.51.086-.989.257-1.434.17-.446.404-.825.7-1.138a3.282 3.282 0 0 1 2.386-1.006c.902 0 1.617.31 2.144.93h.028v-.827h1.588v6.887h-1.519v-.924h-.02Zm-1.956-.4c-.587 0-1.066-.195-1.436-.583-.37-.389-.555-.888-.555-1.5 0-.648.191-1.168.573-1.56.381-.394.856-.59 1.425-.59.564 0 1.032.205 1.405.617.372.411.558.922.558 1.534 0 .61-.19 1.11-.572 1.499a1.885 1.885 0 0 1-1.398.582Zm11.387-2.73v4.06h-1.588V42.35c0-.358-.032-.662-.097-.91a1.353 1.353 0 0 0-.298-.59 1.177 1.177 0 0 0-.469-.313 1.894 1.894 0 0 0-.641-.096c-.546 0-.982.183-1.308.551-.326.368-.489.883-.489 1.544v3.46h-1.588V39.11h1.588v.945h.021c.291-.34.638-.6 1.04-.78.403-.178.83-.268 1.284-.268.795 0 1.418.24 1.869.72.45.48.676 1.22.676 2.217Zm4.292 4.163c.943 0 1.678-.345 2.206-1.034h.02v.924h1.52V39.11h-1.59v.828h-.027c-.527-.62-1.242-.931-2.143-.931a3.282 3.282 0 0 0-2.386 1.006c-.296.313-.53.692-.7 1.138a3.967 3.967 0 0 0-.258 1.434c0 .523.086 1.006.257 1.447.171.441.405.814.7 1.117.297.303.651.539 1.065.706.414.168.86.252 1.336.252Zm-1.187-2.016c.37.388.85.582 1.436.582.55 0 1.017-.194 1.398-.582.382-.389.572-.888.572-1.5 0-.61-.186-1.122-.558-1.533a1.814 1.814 0 0 0-1.405-.617c-.569 0-1.044.196-1.425.59-.382.392-.572.913-.572 1.56 0 .612.185 1.111.554 1.5Zm8.083-.207c.372.36.845.541 1.418.541.578 0 1.049-.19 1.412-.569.363-.379.544-.86.544-1.444 0-.579-.186-1.05-.558-1.413-.372-.363-.838-.544-1.398-.544-.587 0-1.064.183-1.429.551-.365.368-.548.843-.548 1.427 0 .606.186 1.09.559 1.451Zm9.434 2.223c.648 0 1.218-.117 1.71-.352a3.334 3.334 0 0 0 1.21-.95l-1.11-.945c-.434.542-1.01.813-1.727.813-.508 0-.94-.14-1.293-.42-.354-.28-.582-.664-.683-1.151h5.05c.027-.166.041-.375.041-.628 0-.666-.136-1.261-.41-1.785a3.009 3.009 0 0 0-1.178-1.234c-.514-.299-1.106-.448-1.776-.448-.477 0-.923.086-1.339.258a3.184 3.184 0 0 0-1.075.72c-.3.309-.536.683-.708 1.124a3.95 3.95 0 0 0-.256 1.441c0 .703.155 1.327.465 1.872.31.544.733.961 1.269 1.25.536.29 1.14.435 1.81.435Zm-1.866-4.28h3.469c-.102-.428-.297-.766-.587-1.014-.288-.248-.655-.372-1.099-.372-.44 0-.818.12-1.137.362-.32.24-.535.582-.646 1.023Z" fill="#fff"/><g fill="#fff"><path fill-rule="evenodd" clip-rule="evenodd" d="M15.34 40.19a1.18 1.18 0 0 1-1.17 1.191 1.18 1.18 0 0 1-1.17-1.19c0-.658.524-1.191 1.17-1.191.646 0 1.17.533 1.17 1.19Zm0 4.286a1.18 1.18 0 0 1-1.17 1.19 1.18 1.18 0 0 1-1.17-1.19c0-.657.524-1.19 1.17-1.19.646 0 1.17.533 1.17 1.19Zm3.042-3.095a1.18 1.18 0 0 0 1.17-1.19A1.18 1.18 0 0 0 18.382 39a1.18 1.18 0 0 0-1.17 1.19c0 .658.524 1.191 1.17 1.191Z"/><ellipse opacity=".5" cx="18.382" cy="44.524" rx="1.17" ry="1.19"/></g><defs><filter id="a" x="0" y="0" width="88" height="88" filterUnits="userSpaceOnUse" color-interpolation-filters="sRGB"><feFlood flood-opacity="0" result="BackgroundImageFix"/><feBlend in="SourceGraphic" in2="BackgroundImageFix" result="shape"/><feColorMatrix in="SourceAlpha" values="0 0 0 0 0 0 0 0 0 0 0 0 0 0 0 0 0 0 127 0" result="hardAlpha"/><feOffset/><feGaussianBlur stdDeviation="17.5"/><feComposite in2="hardAlpha" operator="arithmetic" k2="-1" k3="1"/><feColorMatrix values="0 0 0 0 0 0 0 0 0 0 0 0 0 0 0 0 0 0 0.0452633 0"/><feBlend in2="shape" result="effect1_innerShadow_0_933"/></filter></defs></svg>