<svg width="88" height="88" fill="none" xmlns="http://www.w3.org/2000/svg"><g filter="url(#a)"><circle cx="44" cy="44" r="44" fill="#000"/></g><g fill-rule="evenodd" clip-rule="evenodd"><path d="M39.081 46.76a3.2 3.2 0 0 1-1.238.24c-.446 0-.86-.08-1.242-.24a3.144 3.144 0 0 1-.996-.652 3.075 3.075 0 0 1-.666-.957A2.799 2.799 0 0 1 34.697 44c0-.405.08-.79.242-1.151.161-.362.383-.681.666-.957.282-.276.614-.493.996-.653A3.19 3.19 0 0 1 37.843 41a3.2 3.2 0 0 1 2.239.892c.282.276.504.594.665.957.162.362.242.746.242 1.151s-.08.79-.242 1.151a3.071 3.071 0 0 1-1.666 1.61Zm-14.548-1.625v1.703H23v-5.676h2.541c.312 0 .597.05.855.15.258.1.479.24.662.418.183.178.325.389.427.632.102.243.154.506.154.787 0 .286-.052.55-.154.79-.102.24-.244.45-.427.629a1.937 1.937 0 0 1-.662.417c-.258.1-.543.15-.855.15h-1.008Zm0-1.378h.927a.63.63 0 0 0 .46-.183.579.579 0 0 0 0-.851.63.63 0 0 0-.46-.182h-.927v1.216Zm5.606 3.08V44.65h2.057v2.189h1.533v-5.676h-1.533v2.108H30.14v-2.108h-1.532v5.676h1.532Zm7.704-1.215c-.22 0-.427-.04-.62-.122a1.471 1.471 0 0 1-.501-.34 1.624 1.624 0 0 1-.33-.515A1.687 1.687 0 0 1 36.27 44c0-.232.04-.447.121-.645.08-.197.191-.368.33-.514.14-.146.308-.26.501-.341.194-.081.4-.122.621-.122.22 0 .426.04.617.122.191.081.358.195.5.34.143.146.255.318.335.515.081.198.121.413.121.645 0 .232-.04.447-.12.645a1.59 1.59 0 0 1-.335.514c-.143.146-.31.26-.5.341a1.562 1.562 0 0 1-.618.122Zm6.736-3.081v4.297h-1.533V42.54h-1.573v-1.379h4.68v1.379h-1.574ZM49.782 47a3.2 3.2 0 0 0 2.239-.892c.282-.276.504-.594.666-.957.16-.362.242-.746.242-1.151s-.081-.79-.242-1.151a3.073 3.073 0 0 0-1.666-1.61A3.2 3.2 0 0 0 49.782 41c-.446 0-.86.08-1.242.24-.382.159-.714.376-.996.652a3.073 3.073 0 0 0-.666.957A2.799 2.799 0 0 0 46.636 44c0 .405.08.79.242 1.151.162.362.383.681.666.957.282.276.614.493.996.653.382.16.796.239 1.242.239Zm-.62-1.5c.193.081.4.122.62.122.22 0 .427-.04.618-.122.19-.081.357-.195.5-.34a1.59 1.59 0 0 0 .334-.515c.081-.198.121-.413.121-.645 0-.232-.04-.447-.12-.645a1.59 1.59 0 0 0-.335-.514 1.525 1.525 0 0 0-.5-.341 1.562 1.562 0 0 0-.618-.122c-.22 0-.427.04-.62.122-.194.081-.361.195-.501.34-.14.146-.25.318-.33.515-.081.198-.122.413-.122.645 0 .232.04.447.121.645.081.197.191.368.331.514.14.146.307.26.5.341Zm6.51 1.5c.354 0 .672-.05.951-.15.28-.1.516-.235.71-.405a1.71 1.71 0 0 0 .597-1.31c0-.33-.065-.6-.194-.81-.129-.212-.29-.382-.484-.512a2.6 2.6 0 0 0-.633-.308l-.633-.21a2.804 2.804 0 0 1-.484-.207c-.13-.073-.194-.175-.194-.304 0-.124.055-.237.166-.337a.63.63 0 0 1 .44-.15c.14 0 .265.023.378.07.113.045.21.098.29.157.098.065.184.138.259.22l.887-.933a2.078 2.078 0 0 0-.476-.406 2.778 2.778 0 0 0-1.5-.405c-.323 0-.616.049-.88.146a2.137 2.137 0 0 0-.673.39c-.185.161-.33.348-.432.559-.102.21-.153.427-.153.648 0 .33.065.6.194.811.129.21.29.381.484.51.193.13.404.233.633.309l.633.21c.194.066.355.135.484.208.13.073.194.174.194.304a.568.568 0 0 1-.194.425c-.129.122-.306.183-.532.183a1.27 1.27 0 0 1-.496-.094 2.038 2.038 0 0 1-.383-.206 2.006 2.006 0 0 1-.331-.308l-.887.932c.16.184.352.346.572.486.188.125.422.237.702.337.28.1.608.15.984.15Zm4.678-3.324v3.162h-1.533v-5.676h1.331l2.42 3.162v-3.162h1.533v5.676h-1.323l-2.428-3.162Zm6.05 3.162.404-1.216h1.855l.403 1.216h1.654l-2.138-5.676h-1.694l-2.137 5.676H66.4Zm6.494 0v-1.703h1.009c.311 0 .596-.05.855-.15.258-.1.478-.24.661-.417.183-.179.326-.388.428-.629.102-.24.153-.504.153-.79a2.01 2.01 0 0 0-.153-.787 1.903 1.903 0 0 0-.428-.632 1.937 1.937 0 0 0-.661-.418 2.35 2.35 0 0 0-.855-.15h-2.541v5.676h1.532Zm0-3.081h.928a.63.63 0 0 0 .46-.183.579.579 0 0 0 0-.851.63.63 0 0 0-.46-.182h-.928v1.216Zm-5.163-1.014-.524 1.662h1.049l-.525-1.662Z" fill="#fff"/><path d="m12 47 4-6 4 6h-8Z" fill="url(#b)"/></g><defs><linearGradient id="b" x1="16" y1="48.5" x2="18.466" y2="41.925" gradientUnits="userSpaceOnUse"><stop stop-color="#FFC593"/><stop offset=".519" stop-color="#BC7198"/><stop offset="1" stop-color="#5A77FF"/></linearGradient><filter id="a" x="0" y="0" width="88" height="88" filterUnits="userSpaceOnUse" color-interpolation-filters="sRGB"><feFlood flood-opacity="0" result="BackgroundImageFix"/><feBlend in="SourceGraphic" in2="BackgroundImageFix" result="shape"/><feColorMatrix in="SourceAlpha" values="0 0 0 0 0 0 0 0 0 0 0 0 0 0 0 0 0 0 127 0" result="hardAlpha"/><feOffset/><feGaussianBlur stdDeviation="17.5"/><feComposite in2="hardAlpha" operator="arithmetic" k2="-1" k3="1"/><feColorMatrix values="0 0 0 0 0 0 0 0 0 0 0 0 0 0 0 0 0 0 0.0452633 0"/><feBlend in2="shape" result="effect1_innerShadow_0_889"/></filter></defs></svg>